<svg width="25" height="25" viewBox="0 0 25 25" fill="none" xmlns="http://www.w3.org/2000/svg">
<g id="icon / moon">
<path id="Vector" opacity="0.2" d="M20.5752 15.4473C20.0793 16.8033 19.2497 18.0126 18.1631 18.9634C17.0764 19.9142 15.7677 20.5758 14.3578 20.8873C12.948 21.1987 11.4823 21.1499 10.0963 20.7454C8.71021 20.3408 7.44843 19.5935 6.42745 18.5725C5.40647 17.5516 4.65919 16.2898 4.25463 14.9037C3.85007 13.5177 3.80126 12.052 4.11271 10.6421C4.42416 9.23225 5.08583 7.92356 6.03662 6.83691C6.98741 5.75026 8.19666 4.92069 9.55273 4.4248C9.28435 5.78415 9.32036 7.18607 9.65819 8.52985C9.99602 9.87362 10.6273 11.1259 11.5066 12.1967C12.3859 13.2675 13.4915 14.1303 14.7439 14.7231C15.9963 15.3158 17.3644 15.6238 18.75 15.625C19.3627 15.6251 19.974 15.5655 20.5752 15.4473Z" fill="#1E1F22"/>
<path id="Vector_2" d="M23.4375 9.375C23.4375 9.5822 23.3552 9.78091 23.2087 9.92743C23.0622 10.0739 22.8634 10.1562 22.6562 10.1562H21.0937V11.7187C21.0937 11.926 21.0114 12.1247 20.8649 12.2712C20.7184 12.4177 20.5197 12.5 20.3125 12.5C20.1053 12.5 19.9066 12.4177 19.7601 12.2712C19.6135 12.1247 19.5312 11.926 19.5312 11.7187V10.1562H17.9687C17.7615 10.1562 17.5628 10.0739 17.4163 9.92743C17.2698 9.78091 17.1875 9.5822 17.1875 9.375C17.1875 9.1678 17.2698 8.96909 17.4163 8.82257C17.5628 8.67606 17.7615 8.59375 17.9687 8.59375H19.5312V7.03125C19.5312 6.82405 19.6135 6.62534 19.7601 6.47882C19.9066 6.33231 20.1053 6.25 20.3125 6.25C20.5197 6.25 20.7184 6.33231 20.8649 6.47882C21.0114 6.62534 21.0937 6.82405 21.0937 7.03125V8.59375H22.6562C22.8634 8.59375 23.0622 8.67606 23.2087 8.82257C23.3552 8.96909 23.4375 9.1678 23.4375 9.375ZM14.0625 5.46875H14.8437V6.25C14.8437 6.4572 14.926 6.65591 15.0726 6.80243C15.2191 6.94894 15.4178 7.03125 15.625 7.03125C15.8322 7.03125 16.0309 6.94894 16.1774 6.80243C16.3239 6.65591 16.4062 6.4572 16.4062 6.25V5.46875H17.1875C17.3947 5.46875 17.5934 5.38644 17.7399 5.23993C17.8864 5.09341 17.9687 4.8947 17.9687 4.6875C17.9687 4.4803 17.8864 4.28159 17.7399 4.13507C17.5934 3.98856 17.3947 3.90625 17.1875 3.90625H16.4062V3.125C16.4062 2.9178 16.3239 2.71909 16.1774 2.57257C16.0309 2.42606 15.8322 2.34375 15.625 2.34375C15.4178 2.34375 15.2191 2.42606 15.0726 2.57257C14.926 2.71909 14.8437 2.9178 14.8437 3.125V3.90625H14.0625C13.8553 3.90625 13.6566 3.98856 13.5101 4.13507C13.3635 4.28159 13.2812 4.4803 13.2812 4.6875C13.2812 4.8947 13.3635 5.09341 13.5101 5.23993C13.6566 5.38644 13.8553 5.46875 14.0625 5.46875ZM21.1689 14.9414C21.2599 15.0473 21.3208 15.1756 21.3454 15.313C21.3699 15.4504 21.3572 15.5918 21.3086 15.7227C20.7665 17.2011 19.8607 18.5191 18.6749 19.5552C17.489 20.5912 16.0613 21.3119 14.5235 21.6506C12.9857 21.9894 11.3874 21.9354 9.87596 21.4935C8.36455 21.0516 6.98879 20.2362 5.87564 19.1224C4.7625 18.0086 3.94783 16.6324 3.50682 15.1207C3.06582 13.6091 3.01268 12.0107 3.35232 10.4731C3.69196 8.93547 4.41343 7.50818 5.45015 6.32294C6.48687 5.13769 7.80544 4.23267 9.28417 3.69141C9.41432 3.64374 9.55481 3.63156 9.69123 3.65611C9.82765 3.68066 9.95507 3.74107 10.0604 3.83112C10.1658 3.92118 10.2453 4.03765 10.2908 4.16858C10.3363 4.29951 10.3461 4.44018 10.3193 4.57617C10.0455 5.96188 10.1173 7.39369 10.5282 8.74511C10.9391 10.0965 11.6765 11.3259 12.6753 12.3247C13.6741 13.3235 14.9035 14.0609 16.2549 14.4718C17.6063 14.8827 19.0381 14.9544 20.4238 14.6807C20.56 14.654 20.7008 14.6642 20.8317 14.71C20.9627 14.7558 21.0791 14.8357 21.1689 14.9414ZM19.2754 16.3945C19.1006 16.4033 18.9248 16.4082 18.75 16.4082C16.0569 16.4054 13.475 15.3341 11.5709 13.4297C9.66678 11.5252 8.59606 8.94307 8.59374 6.25C8.59374 6.0752 8.59374 5.89941 8.60741 5.72461C7.56794 6.32276 6.68013 7.1522 6.01278 8.14865C5.34542 9.14511 4.91643 10.2818 4.75904 11.4707C4.60165 12.6596 4.72009 13.8688 5.10518 15.0046C5.49027 16.1404 6.13167 17.1723 6.9797 18.0203C7.82772 18.8683 8.85959 19.5097 9.99537 19.8948C11.1311 20.2799 12.3403 20.3983 13.5293 20.2409C14.7182 20.0836 15.8549 19.6546 16.8513 18.9872C17.8478 18.3199 18.6772 17.432 19.2754 16.3926V16.3945Z" fill="#1E1F22"/>
</g>
</svg>
