<svg width="20" height="20" viewBox="0 0 20 20" fill="none" xmlns="http://www.w3.org/2000/svg">
<g id="icon / send-email">
<path id="Vector" opacity="0.2" d="M17.4758 3.29532L12.9274 18.2953C12.8926 18.4175 12.8215 18.5263 12.7234 18.607C12.6253 18.6878 12.5049 18.7367 12.3783 18.7474C12.2517 18.758 12.1249 18.7297 12.0147 18.6664C11.9046 18.6031 11.8163 18.5077 11.7617 18.393L8.59377 11.7039C8.53201 11.5737 8.42713 11.4688 8.2969 11.407L1.60784 8.23829C1.4931 8.18372 1.39771 8.09547 1.3344 7.98531C1.27109 7.87515 1.24286 7.74831 1.25346 7.6217C1.26407 7.49509 1.31302 7.37471 1.39378 7.27662C1.47453 7.17853 1.58327 7.10739 1.70549 7.07267L16.7055 2.52423C16.8124 2.49428 16.9253 2.49332 17.0326 2.52146C17.14 2.54959 17.2379 2.60581 17.3163 2.68432C17.3948 2.76283 17.4509 2.86082 17.4789 2.9682C17.5069 3.07558 17.5059 3.18849 17.4758 3.29532Z" fill="#E6F4F2"/>
<path id="Vector_2" d="M17.7594 2.24065C17.6022 2.08357 17.406 1.97122 17.1909 1.9152C16.9759 1.85917 16.7498 1.86148 16.5359 1.9219H16.5242L1.52891 6.4719C1.28481 6.5421 1.06789 6.68499 0.907035 6.88155C0.746176 7.07811 0.649012 7.31901 0.628481 7.57217C0.60795 7.82533 0.665026 8.07873 0.79211 8.29864C0.919194 8.51855 1.11025 8.69453 1.33985 8.80315L8.02891 11.9711L11.1969 18.6602C11.2969 18.8744 11.4561 19.0555 11.6557 19.1822C11.8553 19.3088 12.087 19.3758 12.3234 19.375C12.3594 19.375 12.3953 19.3735 12.4313 19.3703C12.6835 19.3499 12.9235 19.2528 13.119 19.0921C13.3145 18.9314 13.4562 18.7147 13.525 18.4711L18.0719 3.47581C18.0719 3.4719 18.0719 3.46799 18.0719 3.46409C18.1331 3.25078 18.1364 3.02502 18.0815 2.81001C18.0266 2.595 17.9154 2.39848 17.7594 2.24065ZM12.3305 18.1133L12.3266 18.1242L9.25157 11.6328L12.9422 7.94143C13.0545 7.82327 13.1161 7.66592 13.114 7.50295C13.1119 7.33997 13.0463 7.18426 12.931 7.06901C12.8158 6.95376 12.6601 6.88809 12.4971 6.886C12.3341 6.88391 12.1768 6.94557 12.0586 7.05784L8.36719 10.7485L1.87501 7.67346H1.88594L16.875 3.12502L12.3305 18.1133Z" fill="#E6F4F2"/>
</g>
</svg>
