<svg width="99" height="34" viewBox="0 0 99 34" fill="none" xmlns="http://www.w3.org/2000/svg">
<g id="type">
<g id="Assuero">
<path d="M0.956543 15.713L7.53046 0.0608521H11.1044L17.6783 15.713H13.4783L12.1478 12.3739H6.35654L5.0522 15.713H0.956543ZM7.37393 9.63477H11.1305L9.2522 4.70433L7.37393 9.63477Z" fill="#E6F4F2"/>
<path d="M24.4735 16.0782C22.2561 16.0782 20.5605 15.2695 19.6735 14.7478L20.2474 12.1391C21.2909 12.7652 22.5953 13.4695 24.3431 13.4695C25.3344 13.4695 25.9083 13.2348 25.9083 12.6087C25.9083 11.9565 25.204 11.9043 23.9779 11.6435C20.8474 11.0695 19.9866 9.39998 19.9866 7.70433C19.9866 5.90433 21.3953 4.10433 24.6822 4.10433C26.5344 4.10433 28.1257 4.80868 28.8561 5.1739L28.2561 7.65216C27.1083 6.99998 25.9605 6.68694 24.8648 6.68694C23.9518 6.68694 23.5083 6.92172 23.5083 7.39129C23.5083 7.93911 24.1344 8.06955 25.0214 8.25216C28.3866 8.87824 29.4301 10.4956 29.4301 12.0348C29.4301 14.4869 27.7083 16.0782 24.4735 16.0782Z" fill="#E6F4F2"/>
<path d="M36.7069 16.0782C34.4895 16.0782 32.7938 15.2695 31.9069 14.7478L32.4808 12.1391C33.5243 12.7652 34.8286 13.4695 36.5765 13.4695C37.5678 13.4695 38.1417 13.2348 38.1417 12.6087C38.1417 11.9565 37.4373 11.9043 36.2112 11.6435C33.0808 11.0695 32.2199 9.39998 32.2199 7.70433C32.2199 5.90433 33.6286 4.10433 36.9156 4.10433C38.7678 4.10433 40.3591 4.80868 41.0895 5.1739L40.4895 7.65216C39.3417 6.99998 38.1938 6.68694 37.0982 6.68694C36.1851 6.68694 35.7417 6.92172 35.7417 7.39129C35.7417 7.93911 36.3678 8.06955 37.2547 8.25216C40.6199 8.87824 41.6634 10.4956 41.6634 12.0348C41.6634 14.4869 39.9417 16.0782 36.7069 16.0782Z" fill="#E6F4F2"/>
<path d="M56.8968 4.44346V15.713H53.1142L52.9837 13.7043C52.3055 15.1913 50.5576 16.0261 49.0446 16.0261C46.0446 16.0261 44.8707 13.9391 44.8707 11.1478V4.44346H48.9142V10.4174C48.9142 12.2435 49.4098 12.8956 50.5837 12.8956C51.8359 12.8956 52.8533 11.6956 52.8533 10.3913V4.44346H56.8968Z" fill="#E6F4F2"/>
<path d="M71.4384 8.66955C71.4384 9.24346 71.3601 10.1304 71.2558 10.5217H64.3428C64.3688 11.9565 65.2036 13.2869 67.6558 13.2869C68.9341 13.2869 70.3949 12.7652 71.2297 12.0869V14.6956C70.1862 15.5043 68.5688 16.0261 66.4297 16.0261C62.8297 16.0261 60.3514 13.4956 60.3514 9.99998C60.3514 6.39998 63.1949 4.13042 66.221 4.13042C69.1428 4.13042 71.4384 5.90433 71.4384 8.66955ZM64.421 8.64346H67.9167C68.1775 7.46955 67.6297 6.42607 66.2993 6.42607C65.3601 6.42607 64.6297 6.99998 64.421 8.64346Z" fill="#E6F4F2"/>
<path d="M83.0259 7.88694C81.0433 7.26085 79.165 8.14781 79.165 10.0782V15.713H75.1216V4.44346H78.9042L79.0346 6.42607C79.6085 5.1739 81.1216 4.13042 83.0259 4.13042V7.88694Z" fill="#E6F4F2"/>
<path d="M98.2917 10.0782C98.2917 13.6 95.4221 16.1304 91.796 16.1304C88.1438 16.1304 85.3004 13.6 85.3004 10.0782C85.3004 6.60868 88.1438 4.02607 91.796 4.02607C95.4221 4.02607 98.2917 6.60868 98.2917 10.0782ZM94.3264 10.0782C94.3264 7.9652 93.283 6.84346 91.796 6.84346C90.3091 6.84346 89.2656 7.9652 89.2656 10.0782C89.2656 12.2174 90.3352 13.313 91.796 13.313C93.283 13.313 94.3264 12.2174 94.3264 10.0782Z" fill="#E6F4F2"/>
</g>
<g id="Mota">
<path d="M0.956543 33.5217V17.8696H2.99133L9.0435 30.8609L15.0957 17.8696H17.0261V33.5217H15.0174V22.8522C15.0174 22.4609 15.0696 21.5739 15.0696 21.5478C15.0174 21.6261 14.6783 22.487 14.5218 22.8522L9.6435 33.5217H8.2348L3.35654 22.8522C3.17393 22.4609 2.8348 21.6261 2.80872 21.5478C2.80872 21.5739 2.86089 22.4609 2.86089 22.8522V33.5217H0.956543Z" fill="#E6F4F2"/>
<path d="M26.9701 33.9391C23.318 33.9391 20.8136 31.2 20.8136 27.887C20.8136 24.6 23.318 21.8348 26.9701 21.8348C30.5962 21.8348 33.1006 24.6 33.1006 27.887C33.1006 31.2 30.5962 33.9391 26.9701 33.9391ZM26.9701 32.3478C29.5267 32.3478 31.118 30.3652 31.118 27.887C31.118 25.4348 29.5267 23.4261 26.9701 23.4261C24.3875 23.4261 22.7962 25.4348 22.7962 27.887C22.7962 30.3652 24.4136 32.3478 26.9701 32.3478Z" fill="#E6F4F2"/>
<path d="M38.2177 33.5217V23.6087H35.6872V22.2522H38.2177V19.1739H40.2003V22.2522H42.7568V23.6087H40.2003V33.5217H38.2177Z" fill="#E6F4F2"/>
<path d="M50.8356 33.8348C47.7313 33.8348 45.4617 31.1739 45.4617 27.887C45.4617 24.6 47.7313 21.9391 50.8356 21.9391C52.6878 21.9391 54.3313 22.8522 55.2704 24.287L55.3487 22.2522H57.0704V33.5217H55.3487L55.2704 31.487C54.3313 32.9217 52.6878 33.8348 50.8356 33.8348ZM51.3313 32.2435C53.4704 32.2435 55.2182 30.6 55.2182 27.887C55.2182 25.1739 53.4704 23.5304 51.3313 23.5304C49.1921 23.5304 47.4443 25.1739 47.4443 27.887C47.4443 30.6 49.1921 32.2435 51.3313 32.2435Z" fill="#E6F4F2"/>
</g>
</g>
</svg>
