<svg width="25" height="25" viewBox="0 0 25 25" fill="none" xmlns="http://www.w3.org/2000/svg">
<g id="icon / whatsapp">
<path id="Vector" d="M14.9004 14.1826L17.1465 15.3037C17.04 15.8357 16.7523 16.3143 16.3323 16.6578C15.9124 17.0013 15.3863 17.1885 14.8438 17.1875C12.9796 17.1854 11.1924 16.444 9.87419 15.1258C8.55602 13.8076 7.81457 12.0204 7.8125 10.1562C7.81235 9.61436 7.99996 9.08917 8.34342 8.67004C8.68688 8.25092 9.16495 7.96375 9.69629 7.85741L10.8174 10.1035L9.86328 11.5234C9.79198 11.6304 9.74818 11.7533 9.73574 11.8812C9.72331 12.0091 9.74263 12.1381 9.79199 12.2568C10.351 13.5853 11.4078 14.6422 12.7363 15.2012C12.8554 15.2527 12.9854 15.2738 13.1146 15.2626C13.2438 15.2513 13.3682 15.2081 13.4766 15.1367L14.9004 14.1826ZM22.6562 12.5C22.6566 14.2534 22.203 15.9771 21.3396 17.5033C20.4762 19.0294 19.2324 20.306 17.7292 21.2088C16.226 22.1116 14.5147 22.6099 12.7619 22.6551C11.009 22.7003 9.27427 22.2909 7.72656 21.4668L4.40137 22.5752C4.12606 22.667 3.83062 22.6803 3.54817 22.6137C3.26572 22.547 3.00741 22.403 2.8022 22.1978C2.59699 21.9926 2.45298 21.7343 2.38633 21.4518C2.31967 21.1694 2.33299 20.8739 2.4248 20.5986L3.5332 17.2734C2.80874 15.9113 2.4041 14.4021 2.35 12.8603C2.2959 11.3185 2.59376 9.78462 3.22097 8.37512C3.84818 6.96561 4.78825 5.71751 5.96984 4.72556C7.15143 3.73361 8.54347 3.02389 10.0403 2.65025C11.5371 2.27662 13.0994 2.2489 14.6086 2.56919C16.1177 2.88949 17.534 3.54938 18.7501 4.49878C19.9661 5.44819 20.9499 6.66215 21.6267 8.04851C22.3035 9.43488 22.6556 10.9572 22.6562 12.5ZM18.75 14.8437C18.7501 14.6986 18.7098 14.5563 18.6335 14.4328C18.5573 14.3093 18.4482 14.2095 18.3184 14.1445L15.1934 12.582C15.0704 12.5207 14.9333 12.493 14.7962 12.5015C14.659 12.5101 14.5265 12.5547 14.4121 12.6308L12.9775 13.5879C12.319 13.2259 11.7771 12.6839 11.415 12.0254L12.3721 10.5908C12.4482 10.4764 12.4928 10.3439 12.5014 10.2067C12.51 10.0696 12.4822 9.93256 12.4209 9.80955L10.8584 6.68455C10.7936 6.55376 10.6935 6.44373 10.5694 6.36692C10.4453 6.29012 10.3022 6.24961 10.1562 6.24998C9.12025 6.24998 8.12668 6.66153 7.39411 7.3941C6.66155 8.12666 6.25 9.12023 6.25 10.1562C6.25258 12.4346 7.15882 14.619 8.76991 16.2301C10.381 17.8412 12.5653 18.7474 14.8438 18.75C15.3567 18.75 15.8647 18.6489 16.3386 18.4526C16.8125 18.2563 17.2432 17.9686 17.6059 17.6059C17.9686 17.2431 18.2563 16.8125 18.4527 16.3386C18.649 15.8647 18.75 15.3567 18.75 14.8437Z" fill="#25D366"/>
</g>
</svg>
