<svg width="18" height="19" viewBox="0 0 18 19" fill="none" xmlns="http://www.w3.org/2000/svg">
<g id="icon / caret-up">
<path id="Vector" d="M15.023 12.1479C14.9707 12.2002 14.9087 12.2417 14.8404 12.27C14.7721 12.2983 14.6989 12.3129 14.625 12.3129C14.5511 12.3129 14.4779 12.2983 14.4096 12.27C14.3413 12.2417 14.2793 12.2002 14.227 12.1479L9 6.92019L3.77297 12.1479C3.66742 12.2535 3.52427 12.3128 3.375 12.3128C3.22573 12.3128 3.08258 12.2535 2.97703 12.1479C2.87148 12.0424 2.81219 11.8992 2.81219 11.75C2.81219 11.6007 2.87148 11.4575 2.97703 11.352L8.60203 5.72699C8.65427 5.67469 8.71631 5.6332 8.7846 5.60489C8.85288 5.57658 8.92608 5.56201 9 5.56201C9.07392 5.56201 9.14712 5.57658 9.2154 5.60489C9.28369 5.6332 9.34573 5.67469 9.39797 5.72699L15.023 11.352C15.0753 11.4042 15.1168 11.4663 15.1451 11.5346C15.1734 11.6028 15.1879 11.676 15.1879 11.75C15.1879 11.8239 15.1734 11.8971 15.1451 11.9654C15.1168 12.0336 15.0753 12.0957 15.023 12.1479Z" fill="#7A4FEE"/>
</g>
</svg>
